<?xml version="1.0" standalone="no"?>
<!DOCTYPE svg PUBLIC "-//W3C//DTD SVG 20010904//EN"
 "http://www.w3.org/TR/2001/REC-SVG-20010904/DTD/svg10.dtd">
<svg version="1.0" xmlns="http://www.w3.org/2000/svg"
 width="1600.000000pt" height="1600.000000pt" viewBox="0 0 1600.000000 1600.000000"
 preserveAspectRatio="xMidYMid meet">

<g transform="translate(0.000000,1600.000000) scale(0.100000,-0.100000)"
fill="#000000" stroke="none">
<path d="M2315 14768 c-2 -7 -9 -42 -15 -78 -6 -36 -15 -79 -21 -95 -11 -36
14 -116 101 -325 82 -199 196 -488 280 -710 43 -113 89 -230 103 -261 l25 -56
-29 -42 c-15 -24 -31 -63 -35 -88 -13 -88 -1 -147 121 -573 61 -213 141 -514
147 -549 3 -21 -4 -27 -57 -46 -112 -42 -265 -143 -352 -231 -45 -45 -62 -92
-63 -170 0 -93 66 -337 165 -609 26 -71 69 -206 96 -300 27 -93 72 -246 99
-340 27 -93 74 -244 105 -335 31 -91 74 -226 95 -300 110 -389 111 -391 284
-917 75 -227 136 -418 136 -424 0 -7 -11 -35 -24 -63 -56 -119 -87 -237 -93
-351 -9 -173 22 -271 122 -397 72 -89 159 -141 300 -177 l40 -10 33 -108 c18
-60 87 -272 153 -473 123 -375 127 -388 200 -624 l43 -139 51 -22 c66 -29 137
-43 265 -51 99 -6 402 10 435 22 13 5 14 -40 8 -397 l-6 -404 -51 -56 c-28
-30 -64 -80 -81 -110 -27 -48 -30 -63 -30 -139 1 -122 28 -188 90 -219 51 -26
174 -50 252 -51 33 0 57 -6 67 -16 48 -47 197 -147 287 -191 93 -46 159 -70
354 -131 l60 -19 3 -339 c2 -186 0 -566 -4 -843 l-6 -503 -66 -47 c-208 -148
-378 -310 -430 -409 -45 -85 -53 -157 -22 -207 65 -105 223 -106 444 0 169 81
383 247 476 370 19 25 50 64 67 86 64 80 68 109 123 1059 6 91 14 286 19 433
5 148 11 271 13 273 4 3 76 -5 488 -51 278 -31 422 -37 720 -31 360 7 819 44
1011 83 26 5 27 3 33 -49 3 -29 10 -177 16 -328 6 -151 19 -414 30 -585 11
-170 22 -355 25 -410 10 -168 26 -288 45 -331 22 -51 124 -180 204 -258 138
-134 334 -256 498 -310 144 -47 226 -43 293 15 140 124 -19 368 -427 652 l-67
47 -3 547 c-2 302 -2 690 0 864 l3 316 117 58 c140 68 299 171 365 237 26 26
57 52 68 58 61 33 108 149 133 329 20 138 46 470 46 574 0 42 3 77 6 77 3 0
45 -30 92 -68 137 -106 149 -115 446 -334 155 -114 307 -222 340 -240 32 -18
65 -41 74 -50 47 -51 163 16 339 194 165 168 226 240 318 378 115 172 273 463
300 550 4 14 19 47 32 74 35 70 90 225 118 331 49 188 69 390 85 874 6 173 13
318 16 322 2 4 8 160 14 346 5 186 15 478 21 648 13 345 6 1135 -11 1305 -22
219 -93 384 -192 446 -54 34 -219 52 -272 30 -49 -20 -61 -48 -46 -102 23 -80
-3 -121 -135 -208 -196 -131 -532 -247 -895 -310 -169 -29 -368 -53 -492 -59
-85 -5 -88 -4 -88 17 -3 243 -57 938 -91 1171 -104 720 -280 1085 -618 1285
-97 57 -112 75 -115 138 -1 33 1 34 79 64 180 70 213 107 235 268 17 120 -8
519 -41 656 -22 91 -62 196 -78 202 -9 3 -32 16 -51 29 -49 31 -183 79 -288
102 -409 91 -1353 114 -2377 61 -666 -36 -1050 -130 -1119 -274 -38 -81 -70
-319 -82 -616 -6 -144 -5 -164 20 -284 29 -136 33 -145 101 -185 24 -15 146
-59 210 -76 6 -2 9 -21 7 -44 -3 -31 -8 -41 -21 -41 -10 0 -58 -20 -108 -44
-153 -74 -271 -203 -373 -405 -121 -241 -193 -608 -261 -1321 -20 -205 -23
-296 -23 -705 l0 -469 -62 189 c-35 105 -101 316 -149 470 -47 154 -92 300
-100 325 -7 25 -28 99 -45 165 -18 66 -63 230 -102 365 -38 135 -76 269 -84
299 -8 29 -16 57 -18 60 -8 12 -76 253 -112 391 -84 325 -229 687 -293 729
-37 24 -311 22 -441 -3 -52 -10 -107 -21 -121 -23 -25 -5 -30 4 -116 179 -50
100 -116 235 -147 299 -59 123 -201 366 -269 459 -87 120 -136 157 -222 168
l-56 7 -60 155 c-32 85 -73 191 -90 235 -18 44 -40 100 -49 125 -10 25 -45
113 -79 195 -90 217 -123 301 -190 480 -33 88 -71 187 -84 220 -24 57 -52 82
-62 53z m99 -285 c33 -87 101 -261 152 -388 272 -675 346 -877 326 -897 -10
-10 -15 -9 -26 2 -16 17 -91 197 -195 470 -102 271 -176 457 -205 522 -54 122
-136 346 -136 374 0 36 10 74 19 74 4 0 33 -71 65 -157z m6002 -823 c137 -5
347 -18 465 -30 331 -31 514 -70 639 -136 35 -19 69 -34 75 -34 11 0 59 -154
74 -241 19 -108 33 -352 29 -492 -5 -162 -17 -200 -76 -240 -53 -36 -248 -114
-259 -103 -1 1 11 37 27 80 37 95 52 187 48 291 -3 72 -5 80 -23 80 -18 0 -21
-10 -31 -122 -12 -126 -27 -185 -74 -290 -28 -61 -28 -61 -81 -71 -335 -64
-555 -97 -791 -117 -95 -8 -240 -22 -322 -31 -107 -11 -278 -15 -610 -17 -400
-1 -497 1 -731 21 -320 26 -525 56 -542 78 -15 20 -33 127 -33 196 0 37 -5 60
-15 68 -43 36 -59 -66 -31 -199 l13 -63 -40 6 c-59 10 -77 23 -99 72 -31 71
-48 171 -48 285 0 110 -7 129 -41 108 -30 -18 -11 -305 26 -401 10 -25 -6 -23
-80 13 -59 29 -66 36 -79 78 -32 97 -39 182 -33 381 8 265 40 511 70 549 6 7
16 23 22 35 21 42 162 105 310 138 266 58 880 104 1470 111 110 1 272 3 360 5
88 1 273 -3 411 -8z m-5390 -426 c38 -18 96 -75 143 -141 67 -93 219 -356 284
-493 111 -233 209 -432 234 -472 12 -20 20 -44 17 -53 -11 -29 -126 -115 -200
-150 -121 -58 -284 -87 -364 -65 -25 7 -48 17 -53 24 -12 19 -54 169 -133 476
-3 14 -17 61 -30 105 -41 137 -115 407 -129 470 -17 72 -19 173 -5 211 10 25
12 26 29 10 9 -9 34 -16 55 -16 50 0 101 48 92 85 -8 30 10 33 60 9z m5766
-1058 c-4 -33 -4 -33 -75 -45 -40 -7 -107 -15 -149 -18 l-78 -6 0 27 c0 14 -5
26 -12 26 -6 0 -8 3 -4 8 7 7 230 38 291 41 29 1 31 -1 27 -33z m-4547 5 c36
-8 38 -23 6 -65 -39 -51 -124 -111 -234 -165 -85 -42 -501 -201 -587 -225
-241 -66 -588 -136 -675 -136 -62 0 -131 15 -152 32 -29 23 44 97 188 191 67
44 211 109 220 99 3 -4 11 -25 17 -47 11 -41 12 -41 89 -58 64 -14 92 -16 156
-7 140 18 274 72 385 155 91 68 138 148 101 171 -19 12 9 21 116 38 152 24
304 31 370 17z m5189 0 c4 -5 34 -25 69 -45 123 -69 251 -189 322 -300 33 -53
48 -86 39 -86 -2 0 -33 10 -67 21 -121 41 -351 36 -482 -11 -42 -15 -134 -44
-425 -135 -61 -20 -392 -101 -460 -114 -30 -5 -105 -15 -166 -21 -102 -10
-122 -9 -260 14 -219 37 -409 64 -494 70 -41 3 -163 13 -270 22 -146 12 -273
15 -505 11 -591 -8 -874 -64 -1159 -228 -48 -27 -89 -49 -92 -49 -9 0 4 53 42
175 98 318 289 544 514 608 38 11 56 10 125 -5 297 -65 507 -79 1275 -85 697
-6 865 0 1210 43 292 36 598 84 660 104 62 20 116 25 124 11z m-1274 -41 c0
-5 -4 -10 -9 -10 -5 0 -13 -10 -17 -22 -4 -13 -12 -26 -18 -30 -14 -9 -874
-10 -979 -2 -70 6 -77 9 -77 28 0 21 0 21 463 24 254 2 496 7 537 11 41 5 81
9 88 10 6 0 12 -3 12 -9z m-3821 -79 c61 -118 146 -366 211 -608 22 -83 82
-297 134 -475 52 -178 108 -375 125 -438 45 -165 53 -195 110 -387 28 -95 51
-179 51 -187 0 -32 -228 -246 -334 -313 -65 -42 -233 -128 -324 -167 -138 -59
-481 -137 -667 -151 l-90 -7 -17 51 -16 51 41 0 c95 0 256 38 287 66 12 12 12
16 -1 29 -13 13 -21 14 -45 5 -49 -19 -172 -40 -235 -40 -59 0 -60 0 -75 36
-8 19 -17 48 -21 65 -5 28 -4 29 30 29 20 0 59 5 87 11 39 8 50 15 50 30 0 28
-21 33 -92 20 -96 -16 -101 -13 -132 88 -14 48 -26 91 -26 94 0 4 24 7 54 7
54 0 170 20 233 41 34 11 46 28 33 50 -8 11 -19 11 -72 -3 -103 -27 -226 -42
-252 -30 -14 6 -27 26 -35 52 -7 23 -15 48 -17 55 -4 8 11 14 46 19 66 9 100
25 100 47 0 28 -14 30 -85 14 -36 -9 -70 -13 -75 -10 -8 5 -70 184 -70 203 0
4 43 13 94 20 156 19 243 59 208 94 -9 9 -26 7 -79 -10 -38 -12 -93 -24 -123
-28 -30 -3 -67 -7 -81 -9 -15 -1 -30 0 -35 4 -9 6 -44 108 -44 128 0 6 30 18
67 27 75 18 89 27 79 52 -5 13 -14 15 -44 10 -20 -4 -57 -9 -82 -12 l-46 -6
-18 58 c-10 33 -21 65 -23 72 -3 8 5 12 23 12 43 0 204 31 241 47 31 12 45 45
26 56 -5 3 -48 -6 -98 -19 -49 -12 -118 -23 -152 -23 l-62 -1 -25 82 c-14 45
-24 83 -23 85 2 1 28 7 57 13 112 21 130 29 130 55 0 29 -3 30 -95 10 -113
-24 -110 -26 -139 61 -28 83 -30 79 49 89 69 8 173 45 180 63 3 9 0 21 -7 29
-11 10 -26 8 -83 -11 -39 -14 -95 -27 -126 -31 l-55 -7 -13 41 c-9 30 -17 41
-32 41 -11 0 -22 -6 -25 -14 -3 -8 42 -169 101 -358 100 -323 147 -472 394
-1265 56 -177 101 -325 101 -328 0 -4 -42 -6 -92 -3 -69 3 -105 9 -138 26
l-45 21 -43 153 c-24 84 -81 270 -127 413 -47 143 -100 316 -120 385 -19 69
-44 154 -55 190 -11 36 -33 112 -50 170 -17 58 -51 164 -76 235 -155 442 -211
695 -141 636 7 -6 45 -15 84 -21 81 -13 126 -8 353 39 293 61 447 102 570 152
25 10 106 40 181 68 262 96 367 151 464 243 33 32 61 57 62 58 2 0 12 -18 22
-39z m5426 -336 c99 -30 129 -66 105 -125 -17 -41 -56 -72 -143 -115 -220
-108 -667 -141 -1103 -82 -110 15 -213 31 -230 36 -27 7 -26 8 21 15 100 15
425 99 630 163 315 99 365 113 425 123 70 11 235 3 295 -15z m214 -233 c57
-173 121 -485 150 -727 22 -179 60 -684 67 -876 l7 -197 -309 2 c-170 0 -335
-3 -367 -7 -52 -8 -60 -12 -82 -45 -13 -20 -31 -66 -40 -102 -25 -105 -36
-457 -29 -892 5 -297 4 -398 -4 -398 -22 0 -91 -71 -102 -106 -14 -41 -2 -87
34 -126 27 -29 25 -38 -11 -38 -83 0 -142 -89 -121 -184 7 -30 5 -48 -8 -74
-21 -44 -13 -106 17 -138 22 -23 22 -24 4 -64 -13 -28 -16 -52 -12 -82 l6 -44
-47 -18 c-270 -103 -585 -173 -952 -212 -114 -12 -266 -16 -575 -18 -483 -1
-603 8 -970 75 -312 58 -455 96 -627 169 -87 37 -194 104 -203 128 -4 9 -22
69 -41 132 -20 63 -76 239 -125 390 -50 151 -106 327 -124 390 -19 63 -54 176
-78 250 -25 74 -61 189 -80 255 l-35 120 -5 360 c-9 587 22 1070 99 1575 14
91 28 182 31 203 7 45 38 73 150 136 170 95 363 158 567 186 365 49 696 53
1191 14 305 -24 380 -34 1020 -144 526 -90 947 -91 1250 -3 146 42 267 120
296 190 6 16 16 25 20 21 4 -4 22 -50 38 -101z m2014 -1189 c38 -76 27 -138
-35 -199 -111 -110 -508 -304 -753 -369 -371 -97 -779 -157 -1195 -174 -140
-6 -219 -13 -249 -24 -50 -18 -49 -18 -160 42 -83 44 -84 45 -55 53 16 5 225
11 464 12 448 4 516 8 780 52 493 81 913 240 1084 410 16 16 38 49 48 73 17
38 18 49 8 86 -14 50 -8 65 25 65 17 0 29 -9 38 -27z m163 -4 c69 -42 124
-148 156 -299 19 -87 21 -143 25 -685 3 -362 0 -704 -7 -885 -6 -162 -15 -407
-20 -545 -36 -1017 -52 -1232 -106 -1450 -59 -238 -145 -423 -314 -676 -67
-100 -202 -284 -220 -299 -3 -3 -28 -34 -55 -70 -62 -82 -245 -265 -274 -275
-25 -8 -59 10 -231 125 -322 214 -629 466 -983 810 -111 107 -186 197 -211
253 -79 177 -128 520 -166 1157 -12 190 -25 383 -30 430 -12 108 -34 1287 -26
1399 7 95 32 161 70 186 28 19 166 34 309 35 105 0 446 34 614 61 135 21 409
77 536 110 221 56 672 272 775 372 69 66 96 158 69 235 l-15 44 36 -7 c21 -4
51 -15 68 -26z m-6999 -909 c88 -272 116 -363 159 -510 14 -47 43 -141 65
-210 22 -69 56 -177 75 -240 19 -63 79 -252 134 -420 102 -316 132 -412 199
-640 22 -74 63 -214 91 -310 78 -265 114 -400 108 -406 -4 -3 -20 2 -37 10
-62 32 -261 16 -483 -40 -53 -13 -103 -24 -111 -24 -9 0 -23 35 -42 103 -48
174 -163 515 -220 651 -7 17 -5 18 26 12 19 -3 81 -9 139 -12 123 -8 169 5
194 55 30 57 -8 103 -105 128 -38 9 -69 20 -69 23 0 4 29 12 65 19 73 15 171
59 198 89 30 33 19 82 -22 106 -43 25 -180 34 -258 16 -30 -6 -56 -10 -59 -8
-2 3 35 34 83 70 114 86 157 128 183 177 27 53 25 87 -5 116 -28 29 -33 30
-110 10 -78 -21 -136 -48 -213 -103 -35 -24 -65 -42 -68 -40 -2 3 8 29 22 58
92 190 98 330 16 330 -53 0 -121 -57 -203 -170 -28 -38 -54 -70 -58 -70 -4 0
-38 105 -74 233 -37 127 -112 369 -167 537 -96 291 -170 531 -170 551 0 5 11
14 24 19 114 43 330 195 456 322 l75 76 38 -122 c21 -66 76 -240 124 -386z
m4398 147 c39 -20 79 -43 90 -50 11 -6 21 -12 22 -12 1 0 -7 -25 -17 -55 -18
-50 -19 -88 -19 -435 -1 -419 14 -994 29 -1150 10 -107 23 -316 40 -615 11
-209 60 -606 91 -737 44 -191 93 -280 230 -420 84 -86 421 -396 529 -486 177
-149 607 -457 636 -457 8 0 14 -4 14 -9 0 -5 8 -12 18 -16 9 -3 27 -14 40 -25
22 -18 22 -21 8 -47 -22 -41 -64 -83 -85 -83 -23 0 -235 133 -310 196 -9 7
-106 80 -216 161 -110 81 -202 150 -205 153 -3 3 -39 30 -80 61 -41 31 -136
110 -211 175 -75 65 -165 143 -200 173 -114 96 -244 236 -294 316 -59 96 -88
172 -115 307 -12 57 -25 119 -30 138 -9 36 -32 332 -50 645 -28 512 -48 1807
-31 2053 10 145 29 265 40 260 3 -2 38 -20 76 -41z m-5145 -149 c18 -63 124
-390 220 -678 15 -47 51 -168 80 -270 28 -102 55 -196 60 -210 5 -14 16 -51
25 -83 l16 -58 -33 -54 c-18 -30 -35 -55 -38 -55 -3 0 -5 36 -5 79 0 95 -21
134 -75 139 -60 6 -105 -60 -130 -190 -7 -38 -15 -68 -19 -68 -3 0 -28 71 -55
158 -27 86 -78 243 -113 347 -168 500 -205 611 -252 742 -28 78 -51 145 -51
150 0 5 42 19 93 32 74 18 142 42 254 90 1 1 12 -32 23 -71z m-413 -90 c6 -18
29 -85 52 -148 65 -184 282 -822 293 -860 5 -19 27 -91 48 -160 82 -266 90
-292 90 -311 0 -58 -68 -111 -199 -156 -185 -64 -494 -6 -531 100 -196 564
-488 1440 -504 1511 -7 27 -6 28 21 21 49 -12 146 -25 198 -25 l50 0 46 -153
c26 -83 108 -350 184 -592 175 -561 184 -591 197 -642 11 -42 36 -62 59 -47
14 9 15 7 -85 323 -47 151 -86 280 -86 286 0 8 30 14 83 18 135 10 214 44 180
78 -8 8 -28 7 -77 -5 -84 -22 -158 -30 -188 -23 -19 5 -28 19 -42 64 -10 32
-20 63 -23 69 -3 7 20 14 64 18 78 8 96 16 91 42 -3 17 -12 19 -90 15 l-86 -3
-31 96 c-17 53 -31 98 -31 101 0 3 32 5 70 5 71 0 209 24 242 41 21 11 24 37
4 45 -7 3 -40 -2 -72 -10 -33 -8 -100 -18 -149 -22 -104 -8 -107 -6 -137 79
-10 28 -18 52 -18 53 0 1 25 4 55 6 60 5 81 18 72 42 -5 12 -22 16 -76 16
l-69 0 -16 47 c-9 25 -14 48 -12 50 2 3 46 9 97 14 52 5 135 18 184 28 128 27
130 26 142 -11z m1113 -984 c0 11 2 17 6 14 6 -6 -39 -151 -66 -210 -9 -21
-20 -35 -23 -31 -4 3 -7 -3 -7 -14 0 -12 -24 -54 -53 -95 -71 -99 -69 -95 -62
-118 10 -31 47 -24 96 18 89 76 250 186 302 205 10 4 43 10 74 13 51 5 55 4
49 -13 -14 -37 -51 -83 -64 -78 -7 3 -10 1 -7 -5 13 -21 -330 -261 -353 -246
-5 3 -9 -15 -11 -40 -1 -30 2 -46 12 -50 8 -3 54 9 103 25 118 40 209 61 264
60 53 -1 125 -21 125 -34 -1 -11 -62 -45 -113 -63 -18 -6 -81 -16 -140 -23
-138 -15 -174 -29 -170 -66 3 -26 7 -28 78 -39 152 -23 256 -60 247 -87 -10
-31 -123 -32 -289 -3 -99 17 -138 31 -138 48 0 10 -3 9 -9 -1 -8 -12 -23 -12
-98 -2 -89 12 -222 9 -257 -5 -10 -4 -27 -2 -37 4 -14 9 -17 9 -13 -1 5 -14
-101 -50 -148 -50 -16 0 -28 -4 -28 -7 0 -7 -77 -30 -100 -30 -6 0 -8 5 -5 10
3 6 -1 10 -9 10 -10 0 -13 -6 -10 -15 5 -11 -2 -15 -27 -16 -19 -1 -54 -4 -79
-6 -63 -7 -176 -6 -230 1 -111 14 -188 35 -171 45 8 5 -4 10 -30 14 -23 3 -45
9 -48 14 -3 5 -22 19 -42 31 -51 31 -135 145 -158 213 -33 100 -37 211 -12
310 25 99 59 200 60 179 1 -11 3 -12 9 -3 14 22 55 -125 57 -202 2 -96 33
-171 100 -243 65 -70 124 -104 232 -131 193 -49 401 -14 552 93 42 30 88 98
83 124 -2 6 1 12 5 12 5 0 9 8 10 18 1 27 33 184 44 220 6 18 14 30 19 27 4
-3 11 2 14 11 3 8 2 12 -4 9 -6 -3 -10 -2 -10 4 0 17 25 18 37 2 18 -24 15
-106 -7 -211 -23 -101 -21 -120 9 -120 14 0 39 31 88 106 135 209 207 319 213
324 3 3 18 21 34 40 16 19 40 43 54 52 24 16 26 16 39 0 11 -16 12 -16 13 2z
m4270 -184 c0 -22 -4 -40 -9 -40 -5 0 -16 -3 -25 -6 -22 -9 -22 43 1 68 25 27
33 22 33 -22z m-10 -66 c0 -8 -4 -12 -10 -9 -5 3 -10 10 -10 16 0 5 5 9 10 9
6 0 10 -7 10 -16z m11 -281 c1 -168 5 -264 14 -412 5 -83 4 -102 -7 -99 -8 3
-13 22 -13 50 0 26 -3 44 -6 42 -12 -7 -15 -84 -4 -88 5 -2 0 -5 -13 -5 -15
-1 -21 3 -16 11 5 7 3 8 -6 3 -23 -14 -39 21 -28 61 12 45 6 62 -28 74 -17 7
-24 15 -20 26 3 8 2 12 -4 9 -24 -15 -7 36 20 62 17 15 30 34 30 41 0 8 -21
32 -46 55 -40 37 -45 46 -39 70 4 16 19 34 36 43 34 17 38 47 9 67 -26 18 -36
76 -18 100 14 19 61 34 111 36 l27 1 1 -147z m-4453 -380 l95 -17 32 -70 c45
-99 152 -421 225 -676 33 -118 81 -283 105 -366 25 -83 45 -156 45 -161 0 -9
-71 -42 -155 -71 -37 -13 -148 -42 -151 -39 -1 1 -5 13 -9 27 -6 24 -3 27 57
44 100 30 218 92 218 116 0 26 -15 25 -78 -5 -66 -32 -200 -77 -214 -73 -12 4
-116 307 -215 623 -36 116 -98 313 -138 440 -41 126 -71 233 -69 237 9 14 154
9 252 -9z m1202 -121 c145 -47 189 -58 405 -101 362 -73 570 -91 1040 -91 176
1 392 5 480 10 243 13 576 68 810 132 115 31 323 105 340 119 18 17 25 9 25
-31 0 -29 7 -48 28 -71 25 -27 37 -33 93 -38 l64 -6 7 -130 c4 -71 8 -158 10
-192 4 -58 2 -62 -17 -61 -30 2 -225 -49 -279 -73 -26 -11 -49 -26 -52 -32 -2
-7 0 -131 4 -277 7 -249 9 -268 31 -313 34 -70 82 -99 163 -98 35 0 78 6 95
13 50 21 161 101 174 126 16 28 23 28 44 -4 10 -16 13 -30 7 -37 -5 -7 -14
-169 -21 -362 -19 -536 -26 -624 -47 -640 -42 -30 -217 -115 -307 -149 -163
-61 -553 -154 -861 -206 -257 -43 -455 -54 -871 -47 -470 8 -690 27 -985 82
-112 21 -298 70 -309 80 -2 3 15 24 39 47 61 61 112 144 112 182 0 17 -8 63
-17 103 -20 89 -68 149 -147 183 -68 29 -225 38 -353 20 -149 -21 -133 -30
-170 89 l-33 104 12 274 c8 150 15 275 17 276 2 2 29 19 59 38 30 18 90 62
133 97 l78 63 11 -32 c23 -66 95 -187 145 -244 81 -92 153 -85 207 21 23 48
142 380 160 450 43 166 0 280 -93 248 -29 -11 -38 -31 -77 -194 -33 -137 -87
-303 -100 -307 -11 -3 -92 137 -106 181 -5 17 -15 87 -23 156 -10 80 -22 138
-35 163 -16 30 -151 476 -176 579 l-6 28 98 -49 c55 -27 142 -62 194 -79z
m-1510 114 c0 -3 25 -83 56 -178 30 -95 70 -225 89 -288 19 -63 61 -198 94
-300 33 -101 59 -185 58 -186 -1 -1 -31 -11 -67 -23 -95 -31 -286 -129 -372
-191 -40 -29 -93 -79 -118 -111 -25 -32 -48 -58 -51 -58 -3 -1 -23 54 -43 122
-21 67 -98 304 -171 527 -109 330 -170 522 -188 587 -1 4 68 8 153 9 162 2
250 16 425 69 74 22 135 31 135 21z m4770 -656 c-6 -4 -10 -15 -8 -25 2 -13
-10 -22 -50 -38 -105 -40 -157 -141 -99 -195 19 -18 36 -22 94 -23 97 -2 108
-12 44 -39 -62 -27 -91 -61 -91 -106 0 -53 61 -94 141 -94 24 0 26 -4 25 -32
-2 -48 -63 -88 -144 -95 -75 -7 -106 9 -132 70 -15 35 -19 82 -23 285 l-6 242
31 16 c59 31 265 63 218 34z m-2974 -17 c10 -38 -10 -143 -45 -244 -97 -280
-143 -388 -169 -397 -11 -3 -12 0 -4 14 5 11 10 37 10 59 1 22 6 41 12 43 5 2
10 11 10 20 0 9 13 55 29 102 16 47 49 163 72 258 35 145 45 172 60 172 12 0
21 -10 25 -27z m3049 -139 l7 -50 -85 -14 c-93 -14 -117 -10 -117 19 0 37 76
88 155 104 28 5 33 -2 40 -59z m-3495 33 c74 -8 39 -89 -99 -226 -69 -68 -118
-105 -235 -175 -81 -49 -151 -85 -155 -80 -6 7 -68 217 -117 396 -4 13 15 21
108 43 217 52 317 61 498 42z m3505 -157 c-3 -5 -14 -10 -23 -9 -14 0 -13 2 3
9 27 11 27 11 20 0z m-3451 -26 c3 -8 2 -12 -4 -9 -6 3 -10 10 -10 16 0 14 7
11 14 -7z m-19 -23 c3 -5 2 -12 -3 -15 -5 -3 -9 1 -9 9 0 17 3 19 12 6z
m-1022 -150 c26 -76 47 -145 47 -153 0 -19 -147 -38 -295 -38 -88 0 -107 -3
-112 -16 -3 -9 0 -20 8 -26 17 -11 325 -3 382 11 36 9 39 7 48 -17 7 -18 6
-27 -3 -33 -24 -15 -166 -24 -378 -24 -248 0 -320 11 -320 50 0 60 126 172
296 262 76 40 258 122 274 123 3 0 27 -62 53 -139z m4531 102 c4 -16 9 -35 11
-43 10 -32 -134 -53 -171 -26 -28 21 -9 46 57 73 74 31 95 30 103 -4z m-3430
-29 c3 -8 2 -12 -4 -9 -6 3 -10 10 -10 16 0 14 7 11 14 -7z m-57 -16 c-3 -8
-6 -5 -6 6 -1 11 2 17 5 13 3 -3 4 -12 1 -19z m20 -40 c-3 -8 -6 -5 -6 6 -1
11 2 17 5 13 3 -3 4 -12 1 -19z m37 -64 c3 -8 2 -12 -4 -9 -6 3 -10 10 -10 16
0 14 7 11 14 -7z m3402 -12 c-18 -16 -18 -16 -6 6 6 13 14 21 18 18 3 -4 -2
-14 -12 -24z m-3318 -17 c-3 -3 -9 2 -12 12 -6 14 -5 15 5 6 7 -7 10 -15 7
-18z m-578 -220 c0 -85 -4 -155 -9 -155 -11 0 -85 264 -74 267 4 2 22 12 38
22 17 11 33 20 38 20 4 1 7 -69 7 -154z m585 145 c3 -5 1 -10 -4 -10 -6 0 -11
5 -11 10 0 6 2 10 4 10 3 0 8 -4 11 -10z m3610 -175 c17 -16 102 -93 190 -170
88 -76 162 -142 165 -146 7 -10 -14 -336 -35 -554 -25 -263 -54 -356 -134
-428 -23 -20 -41 -41 -41 -47 0 -12 -137 -116 -215 -162 -371 -222 -782 -324
-1500 -373 -531 -35 -721 -31 -1265 30 -521 59 -877 129 -1170 230 -174 61
-342 148 -418 218 l-23 21 82 18 c215 46 504 151 659 239 63 36 66 36 100 22
60 -24 297 -82 429 -103 434 -72 1232 -88 1636 -35 247 33 769 149 950 212
171 59 397 176 409 213 3 8 10 132 15 275 6 143 16 356 22 473 l12 213 51 -58
c28 -31 65 -71 81 -88z m-4306 10 c13 -49 47 -168 77 -263 30 -95 70 -227 89
-293 19 -67 42 -137 51 -156 13 -26 14 -39 6 -57 -14 -31 -67 -70 -116 -86
-39 -13 -124 -15 -157 -5 -14 5 -40 72 -103 263 -46 141 -103 320 -126 397
-23 77 -45 153 -50 168 -6 20 -5 29 3 32 75 22 184 59 232 79 33 13 63 21 66
18 3 -4 16 -47 28 -97z m-324 -230 c26 -88 65 -214 86 -280 22 -66 39 -125 39
-132 0 -6 -9 -14 -20 -18 -10 -3 -53 -28 -94 -55 -41 -27 -76 -47 -78 -45 -1
2 -2 162 0 356 1 194 6 348 11 343 4 -5 29 -81 56 -169z m6521 -353 c-17 -16
-18 -16 -5 5 7 12 15 20 18 17 3 -2 -3 -12 -13 -22z m-5591 7 c127 -23 175
-66 175 -154 0 -86 -65 -171 -200 -259 -100 -66 -192 -107 -384 -173 -212 -72
-304 -92 -461 -100 -155 -7 -222 7 -270 57 -26 27 -30 39 -29 83 0 75 36 138
129 233 72 73 223 184 251 184 5 0 23 -42 40 -92 36 -114 49 -123 169 -122 63
1 90 6 125 24 107 54 151 120 121 178 -17 32 -33 104 -24 113 10 10 183 37
249 38 28 1 77 -4 109 -10z m5575 -33 c0 -2 -8 -10 -17 -17 -16 -13 -17 -12
-4 4 13 16 21 21 21 13z m-240 -255 c-81 -76 -102 -90 -83 -58 11 20 145 135
158 136 6 1 -28 -35 -75 -78z m-5188 -79 c-94 -111 -245 -196 -516 -288 -267
-91 -420 -120 -556 -106 l-75 8 112 7 c62 3 159 16 215 27 122 25 396 115 514
170 110 51 239 136 294 193 57 59 65 52 12 -11z m3168 -1110 c0 -163 3 -547 6
-852 l5 -555 28 -25 c15 -14 75 -59 132 -101 194 -143 349 -308 336 -358 -3
-12 1 -22 10 -25 11 -5 13 -14 9 -34 -5 -20 -4 -23 4 -12 8 12 10 10 10 -11 0
-17 -12 -38 -32 -58 -29 -28 -38 -31 -95 -31 -40 0 -62 4 -58 10 3 6 -1 7 -10
4 -9 -4 -26 -2 -38 3 -12 6 -42 18 -67 28 -76 29 -175 83 -173 94 2 6 -4 8
-12 5 -8 -4 -15 -2 -15 4 0 5 -11 13 -25 16 -14 4 -25 11 -25 16 0 6 -5 10
-11 10 -27 0 -218 177 -280 260 -15 19 -39 49 -53 65 -14 17 -31 46 -36 65
-12 39 -41 380 -34 391 2 4 0 18 -5 32 -5 14 -12 105 -14 203 -3 99 -8 186
-10 194 -3 8 -9 80 -13 160 -3 80 -8 163 -9 185 -2 22 -6 145 -10 273 -6 171
-5 232 4 232 6 0 11 -6 11 -12 0 -10 3 -9 9 1 5 7 27 14 49 15 22 0 38 4 36 8
-2 4 4 7 13 7 10 0 33 3 52 7 27 5 32 4 26 -7 -6 -9 -2 -9 11 2 19 17 126 56
178 66 16 3 40 12 54 19 14 7 29 11 33 8 4 -2 8 -138 9 -302z m-3280 258 c8
-4 35 -11 60 -15 25 -4 79 -15 120 -25 41 -10 103 -21 138 -25 36 -4 62 -12
62 -18 0 -7 4 -7 9 2 7 11 10 10 14 -5 10 -37 8 -177 -5 -342 -6 -92 -11 -186
-10 -210 1 -24 -1 -41 -5 -39 -5 3 -8 -41 -8 -98 1 -63 -3 -101 -9 -98 -5 4
-7 -9 -3 -33 3 -21 1 -102 -4 -179 -6 -77 -11 -153 -11 -170 -7 -175 -31 -442
-43 -471 -8 -19 -15 -38 -17 -42 -2 -4 -7 -6 -11 -4 -5 1 -6 -2 -2 -8 4 -6 -9
-29 -29 -50 -20 -22 -36 -44 -36 -48 0 -5 -16 -26 -36 -46 -29 -29 -39 -35
-46 -24 -7 9 -8 7 -4 -8 7 -25 -57 -86 -167 -160 -39 -27 -81 -57 -91 -66 -11
-10 -29 -21 -40 -24 -11 -4 -26 -13 -34 -20 -7 -8 -20 -14 -27 -14 -8 0 -30
-9 -50 -20 -20 -11 -41 -20 -48 -20 -7 0 -25 -7 -41 -15 -16 -9 -64 -18 -107
-21 -76 -4 -78 -4 -110 27 -29 28 -31 34 -27 85 4 41 13 66 41 107 70 101 201
224 358 334 43 29 90 68 104 84 l25 31 3 471 c1 260 2 592 2 739 0 146 3 270
8 274 4 4 7 1 7 -6 0 -7 3 -10 6 -7 4 4 2 12 -4 19 -6 7 -12 50 -14 96 l-3 82
35 -6 c19 -4 42 -10 50 -14z"/>
<path d="M9162 13518 c-6 -6 -12 -18 -12 -25 0 -8 -12 -18 -26 -23 -86 -33
-539 -82 -874 -95 -85 -3 -253 -13 -373 -21 -173 -12 -349 -15 -860 -11 -592
3 -652 5 -773 25 -155 25 -213 44 -194 67 27 33 -27 64 -58 33 -18 -18 -15
-73 6 -90 56 -46 237 -76 552 -89 271 -12 1112 -5 1360 11 85 5 243 14 350 20
541 27 831 61 922 107 15 7 31 25 34 40 11 44 -26 79 -54 51z"/>
<path d="M9388 13098 c-3 -7 -2 -51 1 -98 5 -76 8 -85 26 -85 27 0 40 59 29
133 -8 47 -13 58 -30 60 -12 2 -24 -3 -26 -10z"/>
<path d="M3726 11546 c-35 -16 -55 -50 -56 -94 0 -26 9 -43 35 -69 31 -31 40
-35 72 -30 82 14 130 114 82 171 -28 32 -89 42 -133 22z m85 -55 c23 -19 23
-21 9 -48 -20 -37 -73 -45 -90 -13 -14 27 -4 59 23 70 31 12 32 12 58 -9z"/>
<path d="M4105 11496 c-26 -21 -30 -30 -30 -76 0 -44 4 -55 28 -76 70 -60 180
1 163 91 -15 78 -99 110 -161 61z m81 -34 c6 -4 16 -16 22 -28 16 -30 -11 -66
-46 -62 -23 3 -27 8 -30 42 -4 47 22 70 54 48z"/>
<path d="M3865 11068 c-11 -6 -37 -27 -57 -46 -32 -30 -38 -43 -38 -78 0 -49
24 -84 74 -108 45 -21 78 -20 126 4 95 48 107 154 24 219 -30 23 -95 28 -129
9z m121 -84 c22 -40 15 -57 -36 -91 -43 -30 -62 -29 -99 3 -41 34 -40 65 2 97
59 45 106 42 133 -9z"/>
<path d="M4323 10725 c-37 -16 -63 -67 -63 -126 0 -54 17 -85 57 -104 50 -24
95 -13 133 33 53 64 38 162 -31 198 -34 17 -55 17 -96 -1z m89 -62 c27 -24 24
-78 -7 -108 -28 -29 -42 -31 -73 -9 -45 31 -18 134 36 134 14 0 34 -7 44 -17z"/>
<path d="M4394 10276 c-43 -19 -112 -82 -131 -120 -43 -83 -34 -154 27 -220
38 -40 40 -41 107 -41 78 1 112 15 166 72 72 73 95 191 50 251 -43 57 -156 87
-219 58z m164 -80 c61 -61 5 -197 -100 -241 -49 -20 -77 -19 -112 4 -81 54
-72 158 21 236 18 15 45 30 60 34 42 11 102 -4 131 -33z"/>
<path d="M6470 11388 c-24 -13 -62 -44 -83 -70 -39 -47 -40 -49 -41 -131 -1
-76 1 -86 26 -119 38 -49 118 -88 182 -88 96 0 184 59 225 150 28 61 26 115
-5 177 -20 42 -35 57 -77 77 -68 35 -163 36 -227 4z m190 -44 c76 -30 106
-109 73 -185 -33 -74 -114 -129 -188 -129 -33 1 -100 36 -123 65 -26 33 -30
108 -8 158 39 90 147 131 246 91z"/>
<path d="M9294 10916 c-41 -34 -77 -117 -69 -159 9 -41 59 -93 102 -108 71
-23 159 24 183 97 31 94 -27 176 -135 189 -44 5 -54 3 -81 -19z m104 -42 c68
-33 82 -96 33 -145 -38 -38 -91 -40 -126 -4 -28 28 -32 63 -10 105 14 26 50
60 66 60 3 0 20 -7 37 -16z"/>
<path d="M6876 10835 c-9 -13 -16 -44 -16 -68 0 -72 57 -113 121 -87 63 26 78
95 33 149 -22 27 -32 31 -74 31 -40 0 -50 -4 -64 -25z m99 -41 c19 -20 16 -43
-7 -58 -35 -22 -74 27 -48 59 16 19 35 19 55 -1z"/>
<path d="M6103 10633 c-52 -51 -8 -133 72 -133 35 0 75 42 75 78 0 16 -9 41
-21 56 -17 22 -28 26 -62 24 -27 -2 -50 -11 -64 -25z m85 -51 c3 -18 -1 -22
-22 -22 -19 0 -26 5 -26 18 0 39 43 43 48 4z"/>
<path d="M9758 10404 c-53 -28 -75 -115 -42 -162 21 -31 66 -52 110 -52 49 0
104 53 104 102 0 64 -62 129 -122 128 -13 -1 -35 -7 -50 -16z m86 -65 c47 -37
29 -89 -31 -89 -55 0 -76 54 -39 97 16 18 40 15 70 -8z"/>
<path d="M7086 10078 c-4 -11 -11 -56 -19 -123 -1 -14 5 -21 20 -23 18 -3 24
4 33 35 16 54 10 117 -13 121 -9 2 -19 -2 -21 -10z"/>
<path d="M8117 10083 c-14 -13 -7 -90 9 -103 25 -22 42 6 36 63 -3 36 -8 47
-21 47 -10 0 -21 -3 -24 -7z"/>
<path d="M8321 10070 c-100 -23 -140 -120 -76 -180 34 -32 254 -80 368 -80
145 0 189 99 72 162 -60 33 -205 85 -260 93 -22 4 -47 8 -55 10 -8 1 -30 -1
-49 -5z m151 -81 c122 -41 173 -63 198 -87 25 -24 25 -24 3 -19 -13 3 -23 1
-23 -4 0 -17 -101 -9 -213 17 -62 14 -113 30 -115 35 -2 5 -12 9 -23 9 -27 0
-25 35 3 54 31 22 96 20 170 -5z"/>
<path d="M6825 10019 c-16 -5 -84 -32 -149 -61 -149 -66 -206 -114 -206 -175
0 -28 6 -45 23 -60 40 -37 74 -37 189 1 202 66 286 115 324 187 42 81 -63 144
-181 108z m103 -55 c75 -21 -65 -119 -243 -170 -27 -8 -59 -19 -70 -24 -40
-17 -51 -18 -69 -4 -17 12 -18 15 -3 37 23 35 291 164 347 166 8 0 25 -2 38
-5z"/>
<path d="M6921 9934 c0 -11 3 -14 6 -6 3 7 2 16 -1 19 -3 4 -6 -2 -5 -13z"/>
<path d="M8436 9575 c-124 -65 -148 -299 -40 -384 131 -103 335 41 309 218
-12 81 -55 139 -122 167 -43 18 -111 18 -147 -1z"/>
<path d="M6819 9524 c-30 -9 -59 -28 -84 -56 -38 -41 -39 -43 -43 -130 -4 -80
-2 -93 23 -143 38 -79 86 -109 171 -109 55 0 70 5 106 30 101 71 132 253 57
339 -64 72 -141 96 -230 69z"/>
<path d="M7457 8973 c-2 -5 -8 -26 -12 -48 -10 -58 -41 -114 -92 -167 -62 -64
-45 -109 21 -57 15 12 28 20 30 18 2 -2 8 -51 15 -109 13 -124 29 -180 72
-260 41 -78 91 -134 145 -166 41 -24 53 -26 119 -22 132 9 244 83 303 200 39
79 72 238 72 350 0 75 -3 87 -23 106 -13 12 -29 22 -35 22 -6 0 -51 -16 -98
-36 -121 -50 -235 -64 -329 -40 -38 9 -91 27 -118 38 -44 19 -48 24 -43 47 3
14 9 50 12 79 6 48 5 52 -14 52 -11 0 -23 -3 -25 -7z m610 -300 c-7 -118 -39
-249 -75 -308 -34 -56 -49 -62 -75 -29 -28 36 -92 94 -126 115 -44 27 -148 56
-228 64 -83 8 -78 1 -89 151 l-7 91 89 -29 c154 -51 284 -46 430 15 91 38 88
41 81 -70z m-442 -228 c41 -8 99 -27 126 -42 54 -29 142 -118 136 -137 -6 -19
-89 -45 -145 -45 -83 -1 -148 53 -211 176 -36 71 -33 73 94 48z"/>
<path d="M5926 7554 c-23 -22 -7 -40 69 -75 94 -43 441 -158 536 -179 142 -31
287 -46 301 -32 24 24 -14 41 -127 57 -125 18 -248 46 -350 80 -125 41 -362
133 -388 149 -23 16 -26 16 -41 0z"/>
<path d="M6960 7280 c0 -12 8 -21 23 -25 49 -11 146 -24 219 -31 68 -5 79 -4
84 11 4 9 3 20 -2 25 -9 9 -240 40 -296 40 -21 0 -28 -5 -28 -20z"/>
<path d="M11300 8979 c-80 -28 -194 -61 -255 -75 -123 -27 -146 -40 -192 -107
-49 -72 -62 -155 -74 -445 -6 -142 -12 -262 -14 -269 -5 -16 -91 -38 -242 -62
-311 -49 -373 -121 -373 -437 0 -158 18 -358 36 -405 27 -66 87 -96 214 -106
71 -5 257 14 355 37 22 5 43 10 47 10 17 0 31 -125 37 -330 7 -242 9 -253 64
-294 106 -80 303 -59 535 58 162 81 200 181 211 552 5 174 9 225 21 239 25 30
84 62 188 104 160 63 203 97 246 192 36 78 49 184 49 414 0 149 -4 216 -16
262 -18 75 -49 129 -79 136 -31 8 -116 -24 -200 -77 -138 -85 -234 -112 -263
-73 -14 19 -12 152 5 330 20 197 5 317 -46 372 -35 38 -86 33 -254 -26z m218
-26 c29 -56 35 -127 23 -287 -26 -379 -24 -403 33 -430 19 -9 47 -16 64 -16
43 0 155 36 185 60 14 11 30 20 36 20 6 0 11 4 11 8 0 5 37 26 81 47 79 37 82
38 96 19 32 -43 38 -99 38 -339 l0 -240 -26 -45 c-43 -73 -107 -128 -199 -172
-47 -22 -104 -50 -128 -61 -55 -26 -118 -81 -138 -120 -13 -24 -15 -47 -10
-111 4 -45 2 -163 -3 -264 -17 -290 -47 -353 -206 -427 -120 -55 -211 -80
-271 -71 -94 12 -103 40 -114 316 -12 288 -24 331 -104 372 -35 18 -51 20
-136 14 -52 -3 -120 -10 -150 -16 -120 -22 -188 -24 -216 -5 -51 33 -69 104
-78 310 -8 196 39 386 102 415 14 6 82 20 152 30 70 11 145 26 166 33 21 8 60
17 86 21 35 5 58 17 84 41 31 30 36 41 40 92 22 291 37 454 46 497 21 98 81
206 115 206 13 0 200 61 303 99 69 25 106 26 118 4z"/>
<path d="M5081 8284 c0 -11 3 -14 6 -6 3 7 2 16 -1 19 -3 4 -6 -2 -5 -13z"/>
<path d="M5070 8235 c0 -8 2 -15 4 -15 2 0 6 7 10 15 3 8 1 15 -4 15 -6 0 -10
-7 -10 -15z"/>
<path d="M5046 8165 c-9 -26 -7 -32 5 -12 6 10 9 21 6 23 -2 3 -7 -2 -11 -11z"/>
<path d="M3541 8064 c0 -11 3 -14 6 -6 3 7 2 16 -1 19 -3 4 -6 -2 -5 -13z"/>
<path d="M5390 8069 c0 -5 5 -7 10 -4 6 3 10 8 10 11 0 2 -4 4 -10 4 -5 0 -10
-5 -10 -11z"/>
<path d="M5370 8039 c0 -5 5 -7 10 -4 6 3 10 8 10 11 0 2 -4 4 -10 4 -5 0 -10
-5 -10 -11z"/>
<path d="M3560 8030 c0 -5 5 -10 10 -10 6 0 10 5 10 10 0 6 -4 10 -10 10 -5 0
-10 -4 -10 -10z"/>
<path d="M4623 8025 c-3 -9 -3 -18 -1 -21 3 -3 8 4 11 16 6 23 -1 27 -10 5z"/>
<path d="M3476 8021 c-4 -7 -5 -15 -2 -18 9 -9 19 4 14 18 -4 11 -6 11 -12 0z"/>
<path d="M4955 8002 c-5 -4 -17 -16 -25 -27 -11 -15 -7 -14 13 4 24 22 32 31
25 31 -2 0 -7 -4 -13 -8z"/>
<path d="M4596 7925 c-9 -26 -7 -32 5 -12 6 10 9 21 6 23 -2 3 -7 -2 -11 -11z"/>
<path d="M4905 7930 c-3 -5 -1 -10 4 -10 6 0 11 5 11 10 0 6 -2 10 -4 10 -3 0
-8 -4 -11 -10z"/>
<path d="M3562 7890 c0 -14 2 -19 5 -12 2 6 2 18 0 25 -3 6 -5 1 -5 -13z"/>
<path d="M4881 7894 c0 -11 3 -14 6 -6 3 7 2 16 -1 19 -3 4 -6 -2 -5 -13z"/>
<path d="M5160 7880 c-9 -6 -10 -10 -3 -10 6 0 15 5 18 10 8 12 4 12 -15 0z"/>
<path d="M3530 7844 c0 -8 5 -12 10 -9 6 3 10 10 10 16 0 5 -4 9 -10 9 -5 0
-10 -7 -10 -16z"/>
<path d="M3471 7724 c0 -11 3 -14 6 -6 3 7 2 16 -1 19 -3 4 -6 -2 -5 -13z"/>
<path d="M3501 7724 c0 -11 3 -14 6 -6 3 7 2 16 -1 19 -3 4 -6 -2 -5 -13z"/>
<path d="M3490 7691 c0 -6 4 -13 10 -16 6 -3 7 1 4 9 -7 18 -14 21 -14 7z"/>
<path d="M5368 7683 c7 -3 16 -2 19 1 4 3 -2 6 -13 5 -11 0 -14 -3 -6 -6z"/>
<path d="M5328 7663 c6 -2 18 -2 25 0 6 3 1 5 -13 5 -14 0 -19 -2 -12 -5z"/>
<path d="M5263 7653 c9 -2 25 -2 35 0 9 3 1 5 -18 5 -19 0 -27 -2 -17 -5z"/>
<path d="M3615 7630 c3 -5 8 -10 11 -10 2 0 4 5 4 10 0 6 -5 10 -11 10 -5 0
-7 -4 -4 -10z"/>
<path d="M3565 7570 c3 -5 8 -10 11 -10 2 0 4 5 4 10 0 6 -5 10 -11 10 -5 0
-7 -4 -4 -10z"/>
<path d="M4865 7500 c-16 -7 -17 -9 -3 -9 9 -1 20 4 23 9 7 11 7 11 -20 0z"/>
<path d="M3653 7483 c9 -9 20 -13 24 -9 4 4 1 11 -7 16 -25 16 -35 11 -17 -7z"/>
<path d="M4465 7480 c-3 -5 -1 -10 4 -10 6 0 11 5 11 10 0 6 -2 10 -4 10 -3 0
-8 -4 -11 -10z"/>
<path d="M5180 7456 c0 -2 7 -7 16 -10 8 -3 12 -2 9 4 -6 10 -25 14 -25 6z"/>
<path d="M5228 7453 c6 -2 18 -2 25 0 6 3 1 5 -13 5 -14 0 -19 -2 -12 -5z"/>
<path d="M5335 7450 c-3 -5 -2 -10 4 -10 5 0 18 -3 28 -7 16 -6 16 -5 4 10
-15 19 -27 22 -36 7z"/>
<path d="M4348 7443 c7 -3 16 -2 19 1 4 3 -2 6 -13 5 -11 0 -14 -3 -6 -6z"/>
<path d="M3780 7420 c-13 -8 -13 -10 2 -10 9 0 20 5 23 10 8 13 -5 13 -25 0z"/>
<path d="M4158 7413 c18 -2 45 -2 60 0 15 2 0 4 -33 4 -33 0 -45 -2 -27 -4z"/>
<path d="M3838 7403 c6 -2 18 -2 25 0 6 3 1 5 -13 5 -14 0 -19 -2 -12 -5z"/>
<path d="M4168 7393 c7 -3 16 -2 19 1 4 3 -2 6 -13 5 -11 0 -14 -3 -6 -6z"/>
<path d="M9265 7810 c3 -5 8 -10 11 -10 2 0 4 5 4 10 0 6 -5 10 -11 10 -5 0
-7 -4 -4 -10z"/>
<path d="M9298 7813 c7 -3 16 -2 19 1 4 3 -2 6 -13 5 -11 0 -14 -3 -6 -6z"/>
<path d="M9361 7774 c0 -11 3 -14 6 -6 3 7 2 16 -1 19 -3 4 -6 -2 -5 -13z"/>
<path d="M9265 7630 c-3 -5 -1 -10 4 -10 6 0 11 5 11 10 0 6 -2 10 -4 10 -3 0
-8 -4 -11 -10z"/>
<path d="M9351 7615 c0 -11 4 -29 9 -40 l9 -20 0 20 c0 11 -4 29 -9 40 l-9 20
0 -20z"/>
<path d="M9315 7580 c-3 -5 1 -10 10 -10 9 0 13 5 10 10 -3 6 -8 10 -10 10 -2
0 -7 -4 -10 -10z"/>
<path d="M9357 7460 c-3 -11 -1 -20 4 -20 5 0 9 9 9 20 0 11 -2 20 -4 20 -2 0
-6 -9 -9 -20z"/>
<path d="M9290 7460 c0 -5 5 -10 11 -10 5 0 7 5 4 10 -3 6 -8 10 -11 10 -2 0
-4 -4 -4 -10z"/>
<path d="M9310 7438 c-12 -8 -12 -9 2 -5 9 3 19 1 22 -6 3 -9 5 -9 5 0 1 18
-13 23 -29 11z"/>
<path d="M6707 6786 c-21 -8 -47 -22 -59 -33 -29 -26 -103 -186 -144 -309 -46
-142 -106 -405 -94 -419 4 -5 29 -16 55 -24 43 -13 47 -12 69 9 13 12 38 59
55 105 34 88 63 135 86 135 31 0 64 -46 79 -109 9 -34 25 -76 37 -92 35 -50
98 -53 133 -6 18 25 21 45 24 194 6 241 -19 394 -81 488 -41 62 -96 84 -160
61z m91 -62 c31 -22 59 -81 79 -166 22 -98 23 -459 1 -481 -25 -25 -50 4 -56
65 -3 29 -10 56 -16 61 -8 5 -8 9 0 15 6 4 10 27 8 52 -1 25 2 53 7 62 19 35
23 137 7 171 -9 17 -24 59 -34 91 -10 33 -29 72 -41 87 -13 15 -23 34 -23 43
0 21 38 21 68 0z m-117 -60 c-11 -15 -21 -23 -21 -18 0 14 31 56 37 50 3 -3
-4 -17 -16 -32z m-64 -126 c-3 -8 -6 -5 -6 6 -1 11 2 17 5 13 3 -3 4 -12 1
-19z m116 -107 c-3 -12 -9 -21 -14 -21 -11 0 -11 25 -2 59 6 24 7 24 14 4 4
-12 5 -30 2 -42z m64 -43 c-3 -8 -6 -5 -6 6 -1 11 2 17 5 13 3 -3 4 -12 1 -19z
m-240 -10 c-3 -8 -6 -5 -6 6 -1 11 2 17 5 13 3 -3 4 -12 1 -19z m214 -95 c13
-16 12 -17 -3 -4 -10 7 -18 15 -18 17 0 8 8 3 21 -13z m-181 -7 c0 -2 -8 -10
-17 -17 -16 -13 -17 -12 -4 4 13 16 21 21 21 13z m-27 -51 c-3 -9 -8 -14 -10
-11 -3 3 -2 9 2 15 9 16 15 13 8 -4z"/>
<path d="M7258 6716 c-88 -32 -131 -84 -172 -207 -56 -168 -63 -367 -17 -457
44 -87 157 -135 261 -113 93 20 150 67 150 124 0 41 -55 94 -106 102 -66 10
-86 19 -108 48 -18 24 -21 42 -20 115 2 101 19 152 61 178 76 47 93 61 107 92
18 37 13 52 -31 93 -36 34 -78 42 -125 25z m86 -62 c22 -21 20 -37 -5 -54
-123 -85 -143 -119 -155 -260 -6 -69 -4 -83 19 -133 29 -64 54 -83 125 -97
101 -19 120 -51 55 -92 -54 -33 -154 -33 -203 1 -64 43 -74 65 -78 171 -6 147
25 304 79 400 37 65 127 101 163 64z"/>
<path d="M8892 6715 c-27 -20 -46 -72 -72 -200 -11 -60 -25 -114 -29 -118 -7
-7 -51 53 -51 68 0 13 -92 144 -120 173 -51 51 -102 43 -120 -19 -14 -49 -38
-289 -45 -464 -6 -126 -4 -153 8 -170 30 -39 42 -5 48 143 6 126 22 334 35
440 4 33 9 42 21 40 21 -4 68 -72 123 -174 53 -99 66 -114 100 -114 39 0 48
15 71 121 61 286 77 279 86 -36 5 -185 -8 -355 -27 -355 -15 0 -122 104 -162
157 -48 65 -79 87 -113 79 -41 -10 -53 -42 -58 -148 -4 -102 -15 -128 -49
-128 -15 0 -19 -6 -16 -27 5 -41 46 -43 89 -5 33 30 33 31 37 136 3 58 8 106
13 106 5 0 26 -24 47 -52 48 -65 137 -150 181 -172 63 -33 94 -1 110 117 14
100 14 382 0 467 -18 114 -60 167 -107 135z"/>
<path d="M7705 6662 c-83 -62 -134 -161 -156 -304 -13 -86 -7 -159 21 -249 25
-82 49 -113 111 -144 66 -34 138 -34 207 1 68 34 102 75 102 123 0 63 -39 92
-140 106 -107 14 -129 43 -110 143 15 83 42 132 103 192 91 88 75 139 -49 155
-44 6 -53 3 -89 -23z m108 -43 l24 -11 -44 -41 c-57 -53 -98 -133 -112 -222
-22 -143 9 -180 184 -217 49 -11 61 -17 63 -35 6 -41 -76 -96 -144 -96 -53 0
-119 37 -138 78 -24 50 -46 145 -46 196 0 69 27 196 51 243 34 67 85 113 126
115 7 1 23 -4 36 -10z"/>
<path d="M8180 6647 c-14 -6 -26 -12 -27 -12 -3 -2 -7 -69 -24 -396 -11 -215
-11 -228 7 -265 17 -35 23 -39 61 -42 37 -3 44 1 67 31 49 64 65 168 67 425 1
148 -2 186 -16 215 -24 52 -78 70 -135 44z m81 -64 c11 -13 13 -56 11 -207 -4
-206 -21 -337 -48 -367 -44 -49 -47 -19 -33 306 12 284 13 285 34 285 13 0 29
-7 36 -17z"/>
<path d="M6020 5912 c0 -11 7 -25 15 -32 20 -17 420 -115 567 -139 204 -34
321 -42 603 -44 l270 -2 3 23 c3 21 0 22 -60 23 -194 1 -550 20 -658 34 -163
21 -391 67 -560 112 -189 50 -180 49 -180 25z"/>
<path d="M9105 5721 c-127 -77 -156 -259 -53 -332 42 -30 130 -23 187 14 92
61 126 194 68 270 -15 20 -41 44 -57 52 -40 21 -109 19 -145 -4z m122 -51 c43
-26 56 -54 50 -106 -11 -106 -130 -179 -200 -124 -67 53 -26 195 68 236 40 18
45 17 82 -6z"/>
<path d="M6046 5721 c-13 -21 8 -38 72 -59 235 -76 587 -141 852 -158 113 -8
150 -2 150 25 0 17 -11 20 -102 26 -278 18 -618 77 -836 145 -106 32 -127 35
-136 21z"/>
<path d="M8680 5677 c-37 -11 -50 -21 -73 -59 -69 -111 -34 -269 68 -308 69
-26 174 32 211 118 19 44 23 148 6 179 -36 66 -123 94 -212 70z m141 -76 c74
-75 0 -241 -107 -241 -67 0 -107 91 -79 185 16 57 27 71 65 78 66 12 91 7 121
-22z"/>
<path d="M8280 5649 c-14 -6 -38 -22 -53 -37 -31 -29 -77 -111 -77 -136 0 -17
-22 -24 -85 -28 -33 -3 -41 -7 -43 -25 -3 -22 0 -23 65 -23 66 0 68 -1 84 -32
8 -18 32 -45 52 -61 83 -68 196 -38 258 66 26 44 29 60 26 107 -8 125 -123
210 -227 169z m117 -65 c35 -22 66 -91 60 -132 -8 -45 -52 -101 -94 -119 -41
-17 -88 -5 -121 30 -32 34 -31 49 3 54 37 5 50 17 42 37 -4 10 -19 16 -42 16
-19 0 -35 5 -35 10 0 32 64 110 100 123 20 7 60 -2 87 -19z"/>
<path d="M6044 5555 c-4 -8 -4 -21 -1 -29 19 -48 645 -179 920 -193 l129 -6
-4 24 c-3 23 -7 24 -99 31 -270 19 -856 135 -903 179 -15 14 -36 11 -42 -6z"/>
<path d="M7239 5524 c-26 -32 24 -46 130 -37 59 5 71 9 71 24 0 24 -20 29
-112 27 -51 0 -81 -5 -89 -14z"/>
<path d="M9040 5124 c-91 -35 -334 -97 -540 -138 -166 -33 -221 -41 -490 -66
-119 -11 -137 -18 -127 -44 7 -18 29 -17 297 10 230 24 508 79 752 150 170 49
212 68 216 93 4 28 -23 27 -108 -5z"/>
<path d="M6400 4961 c0 -15 11 -22 53 -31 200 -43 665 -78 682 -51 18 30 -20
39 -225 51 -112 6 -256 20 -320 31 -153 25 -190 25 -190 0z"/>
<path d="M7313 4886 c-10 -16 27 -35 81 -41 28 -4 114 -3 191 2 131 7 140 9
140 28 0 19 -7 20 -203 20 -114 0 -206 -4 -209 -9z"/>
<path d="M5568 6322 c-85 -65 -52 -100 35 -37 48 36 59 58 31 69 -19 7 -10 11
-66 -32z"/>
<path d="M9370 4118 c-3 -26 -1 -43 3 -39 5 5 7 26 5 47 l-3 39 -5 -47z"/>
<path d="M9185 4100 c11 -5 27 -9 35 -9 9 0 8 4 -5 9 -11 5 -27 9 -35 9 -9 0
-8 -4 5 -9z"/>
<path d="M9078 4083 c7 -3 16 -2 19 1 4 3 -2 6 -13 5 -11 0 -14 -3 -6 -6z"/>
<path d="M8951 3984 c0 -11 3 -14 6 -6 3 7 2 16 -1 19 -3 4 -6 -2 -5 -13z"/>
<path d="M9200 3950 c0 -5 5 -10 10 -10 6 0 10 5 10 10 0 6 -4 10 -10 10 -5 0
-10 -4 -10 -10z"/>
<path d="M9133 3943 c9 -2 23 -2 30 0 6 3 -1 5 -18 5 -16 0 -22 -2 -12 -5z"/>
<path d="M8932 3895 c0 -16 2 -22 5 -12 2 9 2 23 0 30 -3 6 -5 -1 -5 -18z"/>
<path d="M9051 3904 c0 -11 3 -14 6 -6 3 7 2 16 -1 19 -3 4 -6 -2 -5 -13z"/>
<path d="M8952 3850 c0 -14 2 -19 5 -12 2 6 2 18 0 25 -3 6 -5 1 -5 -13z"/>
<path d="M8941 3744 c0 -11 3 -14 6 -6 3 7 2 16 -1 19 -3 4 -6 -2 -5 -13z"/>
<path d="M9053 3560 c0 -25 2 -35 4 -22 2 12 2 32 0 45 -2 12 -4 2 -4 -23z"/>
<path d="M9071 3054 c0 -11 3 -14 6 -6 3 7 2 16 -1 19 -3 4 -6 -2 -5 -13z"/>
<path d="M8994 2795 c-3 -8 -4 -20 -1 -27 3 -7 6 -3 6 9 1 12 7 24 14 26 9 4
9 6 -1 6 -7 1 -15 -6 -18 -14z"/>
<path d="M9022 2690 c0 -19 2 -27 5 -17 2 9 2 25 0 35 -3 9 -5 1 -5 -18z"/>
<path d="M9010 2583 c0 -6 -3 -20 -7 -30 -7 -17 -6 -17 11 0 14 14 16 21 7 30
-8 8 -11 8 -11 0z"/>
<path d="M9091 2574 c0 -11 3 -14 6 -6 3 7 2 16 -1 19 -3 4 -6 -2 -5 -13z"/>
<path d="M9050 2387 c0 -5 9 -20 20 -34 11 -14 20 -22 20 -17 -1 12 -39 61
-40 51z"/>
<path d="M9108 2300 c10 -12 18 -16 21 -9 2 6 -3 15 -10 20 -24 15 -29 10 -11
-11z"/>
<path d="M9245 2200 c3 -5 8 -10 11 -10 2 0 4 5 4 10 0 6 -5 10 -11 10 -5 0
-7 -4 -4 -10z"/>
<path d="M9356 2073 c-6 -14 -5 -15 5 -6 7 7 10 15 7 18 -3 3 -9 -2 -12 -12z"/>
<path d="M9555 2020 c3 -5 11 -10 16 -10 6 0 7 5 4 10 -3 6 -11 10 -16 10 -6
0 -7 -4 -4 -10z"/>
<path d="M9680 1980 c0 -5 5 -10 11 -10 5 0 7 5 4 10 -3 6 -8 10 -11 10 -2 0
-4 -4 -4 -10z"/>
<path d="M9840 1889 c0 -5 5 -7 10 -4 6 3 10 8 10 11 0 2 -4 4 -10 4 -5 0 -10
-5 -10 -11z"/>
<path d="M9668 1883 c6 -2 18 -2 25 0 6 3 1 5 -13 5 -14 0 -19 -2 -12 -5z"/>
<path d="M9888 1883 c7 -3 16 -2 19 1 4 3 -2 6 -13 5 -11 0 -14 -3 -6 -6z"/>
<path d="M6100 4120 c-13 -9 -13 -10 0 -9 8 1 26 5 40 9 l25 8 -25 1 c-14 0
-32 -4 -40 -9z"/>
<path d="M6235 4096 c46 -18 63 -20 50 -7 -6 5 -28 12 -50 16 l-40 6 40 -15z"/>
<path d="M6138 4093 c7 -3 16 -2 19 1 4 3 -2 6 -13 5 -11 0 -14 -3 -6 -6z"/>
<path d="M6318 4088 c5 -5 16 -8 23 -6 8 3 3 7 -10 11 -17 4 -21 3 -13 -5z"/>
<path d="M6501 4014 c0 -11 3 -14 6 -6 3 7 2 16 -1 19 -3 4 -6 -2 -5 -13z"/>
<path d="M6502 3810 c0 -14 2 -19 5 -12 2 6 2 18 0 25 -3 6 -5 1 -5 -13z"/>
<path d="M6501 3744 c0 -11 3 -14 6 -6 3 7 2 16 -1 19 -3 4 -6 -2 -5 -13z"/>
<path d="M6482 3605 c0 -16 2 -22 5 -12 2 9 2 23 0 30 -3 6 -5 -1 -5 -18z"/>
<path d="M6442 2860 c0 -14 2 -19 5 -12 2 6 2 18 0 25 -3 6 -5 1 -5 -13z"/>
<path d="M6443 2760 c0 -25 2 -35 4 -22 2 12 2 32 0 45 -2 12 -4 2 -4 -23z"/>
<path d="M6431 2624 c0 -11 3 -14 6 -6 3 7 2 16 -1 19 -3 4 -6 -2 -5 -13z"/>
<path d="M6412 2585 c0 -16 2 -22 5 -12 2 9 2 23 0 30 -3 6 -5 -1 -5 -18z"/>
<path d="M6411 2464 c0 -11 3 -14 6 -6 3 7 2 16 -1 19 -3 4 -6 -2 -5 -13z"/>
<path d="M6312 2440 c0 -14 2 -19 5 -12 2 6 2 18 0 25 -3 6 -5 1 -5 -13z"/>
<path d="M6199 2263 c-13 -16 -12 -17 4 -4 16 13 21 21 13 21 -2 0 -10 -8 -17
-17z"/>
<path d="M6120 2199 c0 -5 5 -7 10 -4 6 3 10 8 10 11 0 2 -4 4 -10 4 -5 0 -10
-5 -10 -11z"/>
<path d="M6070 2173 c-13 -15 -12 -16 4 -10 10 4 20 7 22 7 2 0 4 5 4 10 0 15
-13 12 -30 -7z"/>
<path d="M6179 2143 c-13 -16 -12 -17 4 -4 16 13 21 21 13 21 -2 0 -10 -8 -17
-17z"/>
<path d="M6079 2058 c-12 -23 -12 -23 10 -4 23 21 26 26 11 26 -5 0 -15 -10
-21 -22z"/>
<path d="M5880 2050 c-9 -6 -10 -10 -3 -10 6 0 15 5 18 10 8 12 4 12 -15 0z"/>
<path d="M6020 2029 c0 -5 5 -7 10 -4 6 3 10 8 10 11 0 2 -4 4 -10 4 -5 0 -10
-5 -10 -11z"/>
<path d="M5818 2016 c-15 -11 -14 -13 13 -13 16 0 26 3 22 6 -4 4 -10 9 -13
13 -3 3 -13 1 -22 -6z"/>
<path d="M5900 2020 c0 -5 5 -10 10 -10 6 0 10 5 10 10 0 6 -4 10 -10 10 -5 0
-10 -4 -10 -10z"/>
<path d="M5925 1960 c-3 -6 1 -7 9 -4 18 7 21 14 7 14 -6 0 -13 -4 -16 -10z"/>
<path d="M5510 1932 c0 -4 16 -15 35 -24 19 -8 35 -12 35 -9 0 4 -16 15 -35
24 -19 9 -35 13 -35 9z"/>
<path d="M5588 1923 c6 -2 18 -2 25 0 6 3 1 5 -13 5 -14 0 -19 -2 -12 -5z"/>
<path d="M5830 1910 c-9 -6 -10 -10 -3 -10 6 0 15 5 18 10 8 12 4 12 -15 0z"/>
<path d="M5723 1903 c9 -2 23 -2 30 0 6 3 -1 5 -18 5 -16 0 -22 -2 -12 -5z"/>
<path d="M5738 1873 c6 -2 18 -2 25 0 6 3 1 5 -13 5 -14 0 -19 -2 -12 -5z"/>
<path d="M5700 1859 c0 -5 5 -7 10 -4 6 3 10 8 10 11 0 2 -4 4 -10 4 -5 0 -10
-5 -10 -11z"/>
<path d="M4017 14013 c-8 -8 -7 -115 2 -198 5 -53 9 -60 29 -63 l24 -4 -7 124
c-8 130 -21 169 -48 141z"/>
<path d="M7740 13871 c-15 -4 -25 -14 -25 -25 0 -16 19 -18 265 -22 146 -2
319 -9 386 -16 67 -6 129 -8 138 -5 20 8 21 33 1 40 -42 17 -715 40 -765 28z"/>
<path d="M8637 13847 c-10 -26 9 -34 108 -44 75 -8 103 -8 112 0 24 23 -4 37
-88 47 -111 13 -126 13 -132 -3z"/>
<path d="M4200 13731 c-36 -5 -45 -10 -45 -26 0 -19 6 -20 85 -17 89 4 107 11
97 36 -7 17 -48 19 -137 7z"/>
<path d="M3797 13693 c-4 -3 -7 -15 -7 -25 0 -15 8 -18 54 -18 67 0 86 7 86
31 0 17 -8 19 -63 19 -35 0 -67 -3 -70 -7z"/>
<path d="M4037 13613 c-4 -3 -7 -53 -7 -110 0 -94 2 -103 19 -103 25 0 28 10
26 110 -1 97 -13 129 -38 103z"/>
<path d="M4873 13287 c-5 -6 -7 -61 -4 -122 6 -101 8 -110 26 -110 19 0 20 8
23 112 2 102 1 113 -17 122 -14 8 -21 7 -28 -2z"/>
<path d="M4993 13034 c-7 -3 -13 -14 -13 -25 0 -18 7 -19 113 -17 104 3 112 4
112 23 0 19 -7 20 -100 22 -55 1 -106 -1 -112 -3z"/>
<path d="M4634 12975 c-11 -27 7 -35 86 -35 60 0 79 3 84 15 8 23 -26 35 -99
35 -48 0 -67 -4 -71 -15z"/>
<path d="M4865 12888 c-3 -18 -5 -69 -3 -113 3 -72 5 -80 23 -80 19 0 20 8 23
113 3 106 2 112 -17 112 -15 0 -22 -9 -26 -32z"/>
<path d="M9887 12123 c-15 -14 -5 -37 37 -84 85 -95 185 -263 229 -385 13 -38
41 -138 63 -223 36 -148 51 -178 76 -153 23 23 -92 416 -157 537 -63 117 -207
313 -231 314 -6 1 -14 -2 -17 -6z"/>
<path d="M2434 11225 c-3 -7 21 -96 54 -197 33 -101 67 -205 76 -233 92 -306
117 -375 136 -375 12 0 20 7 20 16 0 28 -194 650 -242 777 -11 29 -35 36 -44
12z"/>
<path d="M10269 11108 c-1 -7 -1 -16 -1 -19 25 -195 24 -190 46 -187 19 3 21
9 18 58 -1 30 -7 79 -13 108 -8 41 -14 52 -30 52 -10 0 -20 -6 -20 -12z"/>
<path d="M2735 10241 c-3 -6 21 -93 54 -193 33 -101 75 -232 94 -293 28 -92
38 -111 56 -113 12 -2 21 2 21 9 0 21 -68 242 -129 424 -55 162 -76 198 -96
166z"/>
<path d="M12824 9167 c-22 -12 -165 -120 -206 -156 -16 -13 -28 -30 -28 -38 0
-32 32 -21 103 35 41 32 97 74 126 92 50 32 65 62 38 73 -7 3 -22 0 -33 -6z"/>
<path d="M12980 8678 c-30 -5 -107 -14 -170 -21 -104 -11 -115 -14 -115 -32 0
-14 8 -21 28 -23 43 -5 371 39 379 51 3 5 4 16 1 24 -6 15 -41 15 -123 1z"/>
<path d="M12703 8234 c-3 -9 0 -20 8 -25 28 -17 182 -60 196 -55 22 9 11 38
-17 47 -14 4 -56 17 -94 28 -83 25 -85 25 -93 5z"/>
<path d="M3235 7903 c-36 -93 -19 -238 44 -366 42 -86 107 -176 129 -177 27
-1 22 31 -13 77 -89 116 -147 304 -126 403 6 28 11 58 11 65 0 21 -36 19 -45
-2z"/>
<path d="M3500 7281 c0 -10 6 -23 13 -29 20 -17 189 -44 200 -33 19 19 -2 39
-50 45 -26 4 -70 14 -97 22 -63 18 -66 18 -66 -5z"/>
<path d="M4792 5107 c-24 -26 -30 -67 -9 -67 21 0 59 46 55 66 -5 26 -22 27
-46 1z"/>
<path d="M4719 4944 c-18 -21 -25 -181 -10 -227 18 -55 70 -127 92 -127 27 0
24 22 -10 75 -53 84 -58 133 -25 268 5 23 3 27 -14 27 -11 0 -25 -7 -33 -16z"/>
<path d="M9563 3813 c-10 -4 -13 -41 -13 -144 0 -129 1 -139 19 -139 22 0 31
55 31 191 0 87 -6 103 -37 92z"/>
<path d="M9552 3183 c3 -240 4 -248 23 -248 18 0 20 8 23 95 2 52 0 164 -3
248 -7 141 -9 152 -26 152 -19 0 -19 -10 -17 -247z"/>
<path d="M6607 3063 c-3 -10 -7 -135 -9 -278 -3 -254 -3 -260 17 -260 18 0 21
9 28 85 4 47 6 170 5 275 -3 168 -5 190 -20 193 -9 2 -18 -5 -21 -15z"/>
<path d="M6576 2388 c-32 -46 -8 -90 26 -48 20 25 21 61 1 67 -6 2 -18 -6 -27
-19z"/>
<path d="M5400 2373 c-73 -5 -90 -12 -90 -33 0 -10 3 -21 8 -23 4 -2 70 1 147
7 130 10 140 12 140 31 0 18 -7 20 -80 21 -44 0 -100 -1 -125 -3z"/>
<path d="M5045 2203 c-74 -8 -193 -12 -277 -10 -150 4 -175 0 -165 -25 10 -28
219 -37 427 -18 156 14 188 20 195 38 6 17 -11 32 -35 30 -8 0 -73 -7 -145
-15z"/>
<path d="M8534 2155 c-12 -32 7 -35 197 -35 165 0 190 2 196 16 3 9 0 20 -8
25 -8 5 -96 9 -197 9 -151 0 -184 -3 -188 -15z"/>
<path d="M8297 1993 c-74 -4 -78 -5 -75 -26 l3 -22 279 2 c153 1 280 4 283 7
3 3 3 11 0 19 -9 24 -204 32 -490 20z"/>
</g>
</svg>
